<svg width="700" height="650" viewBox="0 0 700 650" fill="none" xmlns="http://www.w3.org/2000/svg">
<rect width="700" height="650" fill="#0A3922"/>
<path d="M226.235 39.4975C163.435 87.6999 205.663 172.867 139.614 218.901C95.6138 249.557 48.3656 231.617 20.9025 272.426C5.34999 295.591 6.33433 321.811 7.71241 336.992C21.4931 485.049 152.607 674.309 335.103 628.966C517.599 583.622 434.521 463.363 561.206 419.497C613.277 401.459 669.286 386.771 688.48 296.084C700.292 240.291 682.574 157.293 632.275 137.282C585.617 118.75 555.792 168.431 502.539 150.59C449.09 132.649 458.834 73.801 399.479 37.5261C350.557 7.65837 272.401 4.01116 226.235 39.4975Z" fill="#83EAE0"/>
<path d="M562.879 487.71C542.995 510.973 535.613 537.785 545.161 556.613C547.13 560.556 550.378 566.076 556.087 568.047C582.369 577.116 628.042 503.482 610.324 485.64C604.32 479.627 594.771 474.6 585.42 475.389C572.525 476.374 564.651 485.542 562.879 487.71Z" fill="#83EAE0"/>
<path opacity="0.79" d="M134.495 434.973C190.435 434.973 235.784 391.106 235.784 336.992C235.784 282.878 190.435 239.01 134.495 239.01C78.5554 239.01 33.207 282.878 33.207 336.992C33.207 391.106 78.5554 434.973 134.495 434.973Z" fill="url(#paint0_radial_107_57)"/>
<path d="M490.136 271.835C490.136 271.835 505.098 268.188 533.644 239.601C562.19 211.015 610.226 185.879 627.845 243.249C638.279 277.158 630.897 353.946 596.74 362.029C573.805 367.549 549.591 349.116 534.333 333.837C519.076 318.558 490.038 310.968 490.038 310.968V271.835H490.136Z" fill="#00B763"/>
<path d="M490.137 271.835V311.067C490.137 311.067 519.175 318.657 534.432 333.936C539.058 338.569 544.571 343.596 550.575 348.032C554.808 342.906 563.076 331.767 565.931 323.586C578.924 285.142 571.64 241.277 538.566 234.87C536.893 236.447 535.219 238.024 533.644 239.601C505.099 268.188 490.137 271.835 490.137 271.835Z" fill="#07AD5A"/>
<path opacity="0.8" d="M504.508 277.946C504.508 277.946 553.233 264.245 585.716 231.715" stroke="#442753" stroke-width="4" stroke-miterlimit="10" stroke-linecap="round" stroke-linejoin="round"/>
<path opacity="0.8" d="M505.886 288.395C505.886 288.395 576.955 279.031 603.828 267.3" stroke="#442753" stroke-width="4" stroke-miterlimit="10" stroke-linecap="round" stroke-linejoin="round"/>
<path opacity="0.8" d="M506.181 308.11C506.181 308.11 545.948 317.868 585.716 341.427" stroke="#442753" stroke-width="4" stroke-miterlimit="10" stroke-linecap="round" stroke-linejoin="round"/>
<path opacity="0.8" d="M506.181 300.224C506.181 300.224 575.282 306.335 603.827 306.335" stroke="#442753" stroke-width="4" stroke-miterlimit="10" stroke-linecap="round" stroke-linejoin="round"/>
<path d="M346.423 170.797C346.423 170.797 351.05 152.068 358.728 144.675C366.405 137.282 379.103 135.114 405.779 140.042C432.356 144.971 451.747 154.04 451.747 164.39C451.747 169.319 432.454 185.977 427.73 185.977C423.005 185.977 359.81 169.023 346.423 170.797Z" fill="#00B763"/>
<path d="M390.817 153.843C367.98 153.843 357.841 163.996 354.002 170.994C375.461 173.163 423.694 185.977 427.729 185.977C431.273 185.977 443.282 176.317 448.794 169.614C439.738 158.673 413.456 153.843 390.817 153.843Z" fill="#07AD5A"/>
<path opacity="0.8" d="M369.26 165.671C369.26 165.671 374.28 153.843 384.222 148.914" stroke="#442753" stroke-width="4" stroke-miterlimit="10" stroke-linecap="round" stroke-linejoin="round"/>
<path opacity="0.8" d="M407.256 153.843C395.936 157.293 387.077 169.614 387.077 169.614" stroke="#442753" stroke-width="4" stroke-miterlimit="10" stroke-linecap="round" stroke-linejoin="round"/>
<path opacity="0.8" d="M407.255 172.276C407.255 172.276 416.114 161.63 430.879 161.63" stroke="#442753" stroke-width="4" stroke-miterlimit="10" stroke-linecap="round" stroke-linejoin="round"/>
<path d="M346.423 170.797C346.423 170.797 351.05 152.068 358.728 144.675C366.405 137.282 379.103 135.114 405.779 140.042C432.356 144.971 451.747 154.04 451.747 164.39C451.747 169.319 432.454 185.977 427.73 185.977C423.005 185.977 359.81 169.023 346.423 170.797Z" stroke="#0F7C46" stroke-width="6" stroke-miterlimit="10" stroke-linecap="round" stroke-linejoin="round"/>
<path d="M490.136 271.835C490.136 271.835 505.098 268.188 533.644 239.601C562.19 211.015 610.226 185.879 627.845 243.249C638.279 277.158 630.897 353.946 596.74 362.029C573.805 367.549 549.591 349.116 534.333 333.837C519.076 318.558 490.038 310.968 490.038 310.968V271.835H490.136Z" stroke="#0F7C46" stroke-width="6" stroke-miterlimit="10" stroke-linecap="round" stroke-linejoin="round"/>
<path d="M320.732 425.116C320.732 425.116 344.849 456.167 357.153 468.488C369.457 480.81 465.43 457.645 476.258 446.802C487.086 435.959 490.039 411.316 432.947 397.516C433.045 397.516 381.368 440.691 320.732 425.116Z" fill="#00B763"/>
<path d="M346.227 456.462C383.139 454.984 451.059 449.267 481.671 427.088C478.423 416.737 465.331 405.401 432.947 397.614C432.947 397.614 384.517 438.029 326.441 426.496C325.457 427.383 324.571 428.172 323.784 429.059C328.41 434.875 337.761 446.605 346.227 456.462Z" fill="#07AD5A"/>
<path opacity="0.8" d="M360.5 440.888C360.5 440.888 373.296 450.647 378.119 460.504" stroke="#442753" stroke-width="4" stroke-miterlimit="10" stroke-linecap="round" stroke-linejoin="round"/>
<path opacity="0.8" d="M384.222 439.705C384.222 439.705 395.05 448.084 399.578 456.857" stroke="#442753" stroke-width="4" stroke-miterlimit="10" stroke-linecap="round" stroke-linejoin="round"/>
<path opacity="0.8" d="M401.645 433.495C401.645 433.495 413.752 439.015 420.839 450.647" stroke="#442753" stroke-width="4" stroke-miterlimit="10" stroke-linecap="round" stroke-linejoin="round"/>
<path opacity="0.8" d="M416.606 428.369C416.606 428.369 438.36 434.579 442.79 443.352" stroke="#442753" stroke-width="4" stroke-miterlimit="10" stroke-linecap="round" stroke-linejoin="round"/>
<path opacity="0.8" d="M434.522 419.497C434.522 419.497 457.654 424.82 462.182 433.593" stroke="#442753" stroke-width="4" stroke-miterlimit="10" stroke-linecap="round" stroke-linejoin="round"/>
<path d="M320.732 425.116C320.732 425.116 344.849 456.167 357.153 468.488C369.457 480.81 465.43 457.645 476.258 446.802C487.086 435.959 490.039 411.316 432.947 397.516C433.045 397.516 381.368 440.691 320.732 425.116Z" stroke="#0F7C46" stroke-width="6" stroke-miterlimit="10" stroke-linecap="round" stroke-linejoin="round"/>
<path d="M107.229 323.586C107.229 323.586 113.135 350.299 134.397 348.229C150.245 346.75 154.084 313.334 130.361 300.618C106.54 288.001 107.229 323.586 107.229 323.586Z" fill="#F4E834"/>
<path d="M107.229 323.586C107.229 323.586 113.135 350.299 134.397 348.229C150.245 346.75 154.084 313.334 130.361 300.618C106.54 288.001 107.229 323.586 107.229 323.586Z" fill="#F4E834" stroke="#D3A548" stroke-width="6" stroke-miterlimit="10"/>
<path d="M125.735 331.669C131.28 331.669 135.775 327.167 135.775 321.614C135.775 316.061 131.28 311.56 125.735 311.56C120.19 311.56 115.694 316.061 115.694 321.614C115.694 327.167 120.19 331.669 125.735 331.669Z" fill="#F4E834"/>
<path opacity="0.66" d="M125.735 330.486C130.628 330.486 134.594 326.514 134.594 321.614C134.594 316.715 130.628 312.743 125.735 312.743C120.842 312.743 116.876 316.715 116.876 321.614C116.876 326.514 120.842 330.486 125.735 330.486Z" fill="#F99338"/>
<path d="M505.098 281.298C493.975 206.185 418.87 155.025 337.466 167.15C322.208 169.417 307.837 173.754 294.647 179.669C279.193 186.667 260.884 182.724 249.761 169.91C244.84 164.193 240.213 159.166 237.752 156.997C230.764 150.885 222.692 144.675 213.439 139.254C208.813 136.494 203.891 133.931 198.674 131.664C193.457 129.396 187.945 127.326 182.236 125.749C180.759 125.355 179.381 124.961 177.905 124.566C176.428 124.271 174.952 123.876 173.475 123.581C171.999 123.285 170.424 123.088 168.947 122.792C167.471 122.496 165.896 122.398 164.321 122.201C158.119 121.511 151.82 121.412 145.421 122.102C139.023 122.693 132.625 124.073 126.424 126.341L125.242 126.735L124.652 126.932L124.357 127.031C123.569 127.326 124.061 127.129 123.864 127.228L123.766 127.326L121.797 128.213L119.829 129.101L118.844 129.594C118.549 129.791 118.057 129.988 117.762 130.185C116.187 130.974 114.71 131.861 113.234 132.649C111.757 133.536 110.477 134.424 109.099 135.311C103.784 139.057 98.8622 143.295 94.6296 147.928C90.3969 152.66 86.558 157.687 83.3097 162.813C80.0614 168.037 77.2068 173.459 74.8444 179.077L74.4507 180.162L74.0569 181.246L73.2695 183.217C73.0726 183.809 72.7773 184.597 72.482 185.386L71.7929 187.555C71.3008 189.033 71.0055 190.413 70.5133 191.892C70.1196 193.37 69.8243 194.75 69.4305 196.229C66.8713 207.762 66.4775 219.098 67.4619 229.744C68.5446 240.291 70.907 250.149 73.9585 258.724C77.0099 267.399 80.7504 274.89 84.4909 281.298C88.2314 287.705 91.9719 292.929 95.2202 297.069C96.7951 299.14 98.3701 300.914 99.6497 302.491C100.339 303.28 100.929 303.97 101.52 304.561C98.9607 311.56 95.6139 325.36 104.375 334.034C112.446 342.117 115.005 311.658 132.428 308.898C137.94 308.011 139.319 300.717 133.708 295.098C128.983 290.366 117.762 289.578 107.82 296.577C107.721 296.379 107.524 296.281 107.426 296.084C106.245 294.605 104.867 292.831 103.489 290.859C100.634 286.916 97.2873 281.889 94.039 275.876C90.7907 269.863 87.6408 262.865 85.1799 254.88C82.6207 246.896 80.8488 238.024 80.2582 228.66C79.6676 219.197 80.4551 209.241 83.0144 199.383C83.4081 198.201 83.7034 196.919 84.0972 195.736C84.4909 194.553 84.8846 193.272 85.2784 192.089L85.9674 190.315C86.1643 189.723 86.3611 189.132 86.6564 188.54L87.4439 186.569L87.8376 185.78L88.2314 184.893C90.3969 180.162 93.0546 175.529 96.0077 171.093C98.9607 166.657 102.406 162.517 106.048 158.771C109.788 155.025 113.824 151.674 118.155 148.914C119.238 148.224 120.321 147.534 121.404 146.942C122.486 146.45 123.471 145.858 124.553 145.365C124.849 145.267 125.046 145.07 125.341 144.971L126.325 144.577L128.392 143.788L130.361 142.999L130.558 142.901L131.05 142.802L131.936 142.507C136.759 140.929 141.779 140.042 146.799 139.747C151.82 139.451 156.938 139.648 161.958 140.437C163.238 140.634 164.419 140.831 165.699 141.028C166.978 141.324 168.16 141.521 169.439 141.817C170.62 142.112 171.9 142.408 173.081 142.802C174.263 143.098 175.444 143.492 176.625 143.887C181.35 145.464 185.976 147.337 190.307 149.407C194.638 151.575 198.773 153.843 202.71 156.405C210.585 161.433 217.377 167.051 223.381 172.67C225.251 174.346 228.5 178.289 232.24 182.922C243.068 196.426 243.658 215.352 233.618 229.448C214.128 256.852 204.777 290.564 209.896 325.163C221.019 400.276 296.124 451.435 377.528 439.311C458.933 427.186 516.221 356.509 505.098 281.298Z" fill="#00F0B5"/>
<path d="M241.69 389.038C241.69 389.038 242.576 392.981 257.538 387.363C272.5 381.744 285.001 363.114 285.001 363.114L249.958 376.322L231.551 379.575L241.69 389.038Z" fill="#12CC9B"/>
<path d="M238.441 161.63C238.441 161.63 250.647 186.963 271.22 191.892C291.596 196.82 303.014 180.359 320.831 172.177C305.376 175.233 286.772 184.006 286.772 184.006C286.772 184.006 262.951 187.16 247.3 169.516C231.65 151.97 238.441 161.63 238.441 161.63Z" fill="#12CC9B"/>
<g opacity="0.76">
<path opacity="0.76" d="M505.099 281.298C495.944 219.887 444.07 174.543 380.875 166.657C423.202 185.386 479.014 197.708 479.506 277.946C480.195 376.717 410.11 428.468 335.005 433.495C320.043 434.481 304.786 429.552 290.71 427.876C316.696 439.409 346.62 443.845 377.627 439.311C459.13 427.186 516.222 356.509 505.099 281.298Z" fill="#12CC9B"/>
</g>
<path d="M316.893 323.586C333.202 323.586 346.424 309.684 346.424 292.535C346.424 275.386 333.202 261.485 316.893 261.485C300.584 261.485 287.363 275.386 287.363 292.535C287.363 309.684 300.584 323.586 316.893 323.586Z" fill="#442753"/>
<path d="M309.018 297.464C315.759 297.464 321.224 291.727 321.224 284.649C321.224 277.572 315.759 271.835 309.018 271.835C302.277 271.835 296.812 277.572 296.812 284.649C296.812 291.727 302.277 297.464 309.018 297.464Z" fill="white"/>
<path d="M327.918 311.067C331.887 311.067 335.104 307.713 335.104 303.575C335.104 299.438 331.887 296.084 327.918 296.084C323.95 296.084 320.732 299.438 320.732 303.575C320.732 307.713 323.95 311.067 327.918 311.067Z" fill="white"/>
<path d="M411.685 299.14C411.193 297.957 408.437 291.845 401.94 288.395C390.719 282.382 377.529 288.986 370.835 292.239C366.11 294.605 360.401 297.365 360.106 301.604C359.81 306.138 365.52 308.208 366.012 312.545C365.52 316.981 359.81 319.051 360.106 323.586C360.401 327.824 366.11 330.683 370.835 332.95C377.43 336.203 390.719 342.807 401.94 336.794C408.437 333.344 411.193 327.233 411.685 326.05C412.473 324.177 413.752 318.361 413.752 312.545C413.752 306.73 412.473 301.012 411.685 299.14Z" fill="#00B763"/>
<path opacity="0.8" d="M372.41 305.251C372.41 305.251 389.636 301.012 400.562 301.012" stroke="#442753" stroke-width="4" stroke-miterlimit="10" stroke-linecap="round" stroke-linejoin="round"/>
<path opacity="0.8" d="M372.41 314.221C372.41 314.221 389.242 311.855 396.625 315.306" stroke="#442753" stroke-width="4" stroke-miterlimit="10" stroke-linecap="round" stroke-linejoin="round"/>
<path d="M411.685 299.14C411.193 297.957 408.437 291.845 401.94 288.395C390.719 282.382 377.529 288.986 370.835 292.239C366.11 294.605 360.401 297.365 360.106 301.604C359.81 306.138 365.52 308.208 366.012 312.545C365.52 316.981 359.81 319.051 360.106 323.586C360.401 327.824 366.11 330.683 370.835 332.95C377.43 336.203 390.719 342.807 401.94 336.794C408.437 333.344 411.193 327.233 411.685 326.05C412.473 324.177 413.752 318.361 413.752 312.545C413.752 306.73 412.473 301.012 411.685 299.14Z" stroke="#0F7C46" stroke-width="6" stroke-miterlimit="10" stroke-linecap="round" stroke-linejoin="round"/>
<path d="M505.098 281.298C493.975 206.185 418.87 155.025 337.466 167.15C322.208 169.417 307.837 173.754 294.647 179.669C279.193 186.667 260.884 182.724 249.761 169.91C244.84 164.193 240.213 159.166 237.752 156.997C230.764 150.885 222.692 144.675 213.439 139.254C208.813 136.494 203.891 133.931 198.674 131.664C193.457 129.396 187.945 127.326 182.236 125.749C180.759 125.355 179.381 124.961 177.905 124.566C176.428 124.271 174.952 123.876 173.475 123.581C171.999 123.285 170.424 123.088 168.947 122.792C167.471 122.496 165.896 122.398 164.321 122.201C158.119 121.511 151.82 121.412 145.421 122.102C139.023 122.693 132.625 124.073 126.424 126.341L125.242 126.735L124.652 126.932L124.357 127.031C123.569 127.326 124.061 127.129 123.864 127.228L123.766 127.326L121.797 128.213L119.829 129.101L118.844 129.594C118.549 129.791 118.057 129.988 117.762 130.185C116.187 130.974 114.71 131.861 113.234 132.649C111.757 133.536 110.477 134.424 109.099 135.311C103.784 139.057 98.8622 143.295 94.6296 147.928C90.3969 152.66 86.558 157.687 83.3097 162.813C80.0614 168.037 77.2068 173.459 74.8444 179.077L74.4507 180.162L74.0569 181.246L73.2695 183.217C73.0726 183.809 72.7773 184.597 72.482 185.386L71.7929 187.555C71.3008 189.033 71.0055 190.413 70.5133 191.892C70.1196 193.37 69.8243 194.75 69.4305 196.229C66.8713 207.762 66.4775 219.098 67.4619 229.744C68.5446 240.291 70.907 250.149 73.9585 258.724C77.0099 267.399 80.7504 274.89 84.4909 281.298C88.2314 287.705 91.9719 292.929 95.2202 297.069C96.7951 299.14 98.3701 300.914 99.6497 302.491C100.339 303.28 100.929 303.97 101.52 304.561C98.9607 311.56 95.6139 325.36 104.375 334.034C112.446 342.117 115.005 311.658 132.428 308.898C137.94 308.011 139.319 300.717 133.708 295.098C128.983 290.366 117.762 289.578 107.82 296.577C107.721 296.379 107.524 296.281 107.426 296.084C106.245 294.605 104.867 292.831 103.489 290.859C100.634 286.916 97.2873 281.889 94.039 275.876C90.7907 269.863 87.6408 262.865 85.1799 254.88C82.6207 246.896 80.8488 238.024 80.2582 228.66C79.6676 219.197 80.4551 209.241 83.0144 199.383C83.4081 198.201 83.7034 196.919 84.0972 195.736C84.4909 194.553 84.8846 193.272 85.2784 192.089L85.9674 190.315C86.1643 189.723 86.3611 189.132 86.6564 188.54L87.4439 186.569L87.8376 185.78L88.2314 184.893C90.3969 180.162 93.0546 175.529 96.0077 171.093C98.9607 166.657 102.406 162.517 106.048 158.771C109.788 155.025 113.824 151.674 118.155 148.914C119.238 148.224 120.321 147.534 121.404 146.942C122.486 146.45 123.471 145.858 124.553 145.365C124.849 145.267 125.046 145.07 125.341 144.971L126.325 144.577L128.392 143.788L130.361 142.999L130.558 142.901L131.05 142.802L131.936 142.507C136.759 140.929 141.779 140.042 146.799 139.747C151.82 139.451 156.938 139.648 161.958 140.437C163.238 140.634 164.419 140.831 165.699 141.028C166.978 141.324 168.16 141.521 169.439 141.817C170.62 142.112 171.9 142.408 173.081 142.802C174.263 143.098 175.444 143.492 176.625 143.887C181.35 145.464 185.976 147.337 190.307 149.407C194.638 151.575 198.773 153.843 202.71 156.405C210.585 161.433 217.377 167.051 223.381 172.67C225.251 174.346 228.5 178.289 232.24 182.922C243.068 196.426 243.658 215.352 233.618 229.448C214.128 256.852 204.777 290.564 209.896 325.163C221.019 400.276 296.124 451.435 377.528 439.311C458.933 427.186 516.221 356.509 505.098 281.298Z" stroke="#0A8E6B" stroke-width="6" stroke-miterlimit="10" stroke-linecap="round" stroke-linejoin="round"/>
<path d="M261.574 372.478C255.471 374.844 249.269 376.717 243.167 377.998C231.158 366.268 224.07 348.525 225.35 329.106C226.236 316.587 230.37 305.251 236.867 296.084C236.079 299.83 235.489 303.772 235.292 307.715C233.422 333.344 243.954 357.002 261.574 372.478Z" fill="white"/>
<path d="M261.574 372.478C255.471 374.844 249.269 376.717 243.167 377.998C231.158 366.268 224.07 348.525 225.35 329.106C226.236 316.587 230.37 305.251 236.867 296.084C236.079 299.83 235.489 303.772 235.292 307.715C233.422 333.344 243.954 357.002 261.574 372.478Z" stroke="white" stroke-width="3" stroke-miterlimit="10" stroke-linecap="round" stroke-linejoin="round"/>
<path d="M279.587 363.804C276.338 365.676 272.992 367.451 269.547 369.028C268.759 369.422 267.873 369.817 267.086 370.112C261.18 361.832 257.538 351.285 257.538 339.752C257.538 329.599 260.294 320.234 265.019 312.545C264.625 315.601 264.33 318.756 264.33 322.008C264.33 338.076 270.137 352.763 279.587 363.804Z" fill="white"/>
<path d="M279.587 363.804C276.338 365.676 272.992 367.451 269.547 369.028C268.759 369.422 267.873 369.817 267.086 370.112C261.18 361.832 257.538 351.285 257.538 339.752C257.538 329.599 260.294 320.234 265.019 312.545C264.625 315.601 264.33 318.756 264.33 322.008C264.33 338.076 270.137 352.763 279.587 363.804Z" stroke="white" stroke-width="3" stroke-miterlimit="10" stroke-linecap="round" stroke-linejoin="round"/>
<path opacity="0.3" d="M342.387 344.089C342.387 344.089 342.387 364.888 323.193 376.717" stroke="#212121" stroke-width="6" stroke-miterlimit="10" stroke-linecap="round" stroke-linejoin="round"/>
<path opacity="0.3" d="M358.826 352.271C358.826 352.271 366.307 367.254 358.333 383.715" stroke="#212121" stroke-width="6" stroke-miterlimit="10" stroke-linecap="round" stroke-linejoin="round"/>
<path d="M291.005 356.411C284.508 361.241 277.323 365.578 269.546 369.127C257.833 374.548 245.824 377.998 234.012 379.575" stroke="#0A8E6B" stroke-width="6" stroke-miterlimit="10" stroke-linecap="round" stroke-linejoin="round"/>
<path opacity="0.8" d="M372.41 322.008C372.41 322.008 385.6 323.29 388.356 326.05" stroke="#442753" stroke-width="4" stroke-miterlimit="10" stroke-linecap="round" stroke-linejoin="round"/>
<path d="M519.568 51.3263C519.568 51.3263 512.087 78.9269 540.436 78.9269C568.785 78.9269 551.067 39.4975 519.568 51.3263Z" fill="#83EAE0"/>
<path d="M194.671 465.654L170.744 456.448L164.624 472.355L184.624 480.05C186.479 480.764 187.687 481.732 188.25 482.954C188.85 484.16 188.873 485.483 188.318 486.925C187.763 488.368 186.859 489.335 185.606 489.826C184.352 490.318 182.812 490.212 180.985 489.509L160.985 481.814L153.102 502.302C152.101 504.904 150.783 506.62 149.148 507.452C147.551 508.266 145.867 508.332 144.094 507.651C142.295 506.958 141.067 505.755 140.411 504.042C139.783 502.339 139.964 500.201 140.954 497.628L159.364 449.781C160.06 447.971 160.885 446.6 161.838 445.668C162.802 444.708 163.928 444.183 165.214 444.094C166.539 443.987 168.06 444.264 169.778 444.925L198.409 455.94C200.345 456.685 201.602 457.688 202.181 458.95C202.798 460.194 202.829 461.537 202.274 462.979C201.708 464.45 200.774 465.454 199.472 465.991C198.207 466.511 196.607 466.399 194.671 465.654Z" fill="#0A3922"/>
<path d="M194.671 465.654L170.744 456.448L164.624 472.355L184.624 480.05C186.479 480.764 187.687 481.732 188.25 482.954C188.85 484.16 188.873 485.483 188.318 486.925C187.763 488.368 186.859 489.335 185.606 489.826C184.352 490.318 182.812 490.212 180.985 489.509L160.985 481.814L153.102 502.302C152.101 504.904 150.783 506.62 149.148 507.452C147.551 508.266 145.867 508.332 144.094 507.651C142.295 506.958 141.067 505.755 140.411 504.042C139.783 502.339 139.964 500.201 140.954 497.628L159.364 449.781C160.06 447.971 160.885 446.6 161.838 445.668C162.802 444.708 163.928 444.183 165.214 444.094C166.539 443.987 168.06 444.264 169.778 444.925L198.409 455.94C200.345 456.685 201.602 457.688 202.181 458.95C202.798 460.194 202.829 461.537 202.274 462.979C201.708 464.45 200.774 465.454 199.472 465.991C198.207 466.511 196.607 466.399 194.671 465.654Z" fill="url(#paint1_radial_107_57)" fill-opacity="0.5"/>
<path d="M205.209 522.351L212.798 502.626L207.214 473.45C206.748 470.836 206.471 468.831 206.383 467.433C206.322 466.046 206.46 464.914 206.797 464.038C207.352 462.595 208.363 461.556 209.829 460.919C211.322 460.292 212.859 460.283 214.441 460.891C216.104 461.531 217.168 462.509 217.632 463.824C218.135 465.121 218.685 467.556 219.282 471.13L223.226 494.318L241.818 479.801C242.946 478.904 243.894 478.149 244.662 477.535C245.43 476.922 246.218 476.381 247.024 475.912C247.869 475.425 248.703 475.129 249.526 475.024C250.349 474.918 251.251 475.054 252.233 475.432C253.76 476.02 254.827 477.031 255.433 478.465C256.077 479.882 256.138 481.269 255.616 482.626C255.192 483.729 254.508 484.732 253.566 485.636C252.624 486.539 251.15 487.726 249.145 489.194L224.946 507.3L217.357 527.024C216.367 529.598 215.054 531.3 213.419 532.132C211.784 532.964 210.081 533.039 208.308 532.357C206.509 531.665 205.289 530.482 204.65 528.807C204.022 527.104 204.208 524.952 205.209 522.351Z" fill="#0A3922"/>
<path d="M205.209 522.351L212.798 502.626L207.214 473.45C206.748 470.836 206.471 468.831 206.383 467.433C206.322 466.046 206.46 464.914 206.797 464.038C207.352 462.595 208.363 461.556 209.829 460.919C211.322 460.292 212.859 460.283 214.441 460.891C216.104 461.531 217.168 462.509 217.632 463.824C218.135 465.121 218.685 467.556 219.282 471.13L223.226 494.318L241.818 479.801C242.946 478.904 243.894 478.149 244.662 477.535C245.43 476.922 246.218 476.381 247.024 475.912C247.869 475.425 248.703 475.129 249.526 475.024C250.349 474.918 251.251 475.054 252.233 475.432C253.76 476.02 254.827 477.031 255.433 478.465C256.077 479.882 256.138 481.269 255.616 482.626C255.192 483.729 254.508 484.732 253.566 485.636C252.624 486.539 251.15 487.726 249.145 489.194L224.946 507.3L217.357 527.024C216.367 529.598 215.054 531.3 213.419 532.132C211.784 532.964 210.081 533.039 208.308 532.357C206.509 531.665 205.289 530.482 204.65 528.807C204.022 527.104 204.208 524.952 205.209 522.351Z" fill="url(#paint2_radial_107_57)" fill-opacity="0.5"/>
<path d="M244.678 537.537L263.529 488.544C264.508 485.999 265.801 484.305 267.409 483.463C269.016 482.62 270.706 482.54 272.479 483.222C274.306 483.925 275.533 485.128 276.162 486.83C276.828 488.515 276.666 490.644 275.676 493.218L256.826 542.211C255.836 544.784 254.523 546.487 252.888 547.318C251.281 548.161 249.564 548.231 247.737 547.528C245.992 546.856 244.791 545.664 244.136 543.951C243.518 542.22 243.699 540.082 244.678 537.537Z" fill="#0A3922"/>
<path d="M244.678 537.537L263.529 488.544C264.508 485.999 265.801 484.305 267.409 483.463C269.016 482.62 270.706 482.54 272.479 483.222C274.306 483.925 275.533 485.128 276.162 486.83C276.828 488.515 276.666 490.644 275.676 493.218L256.826 542.211C255.836 544.784 254.523 546.487 252.888 547.318C251.281 548.161 249.564 548.231 247.737 547.528C245.992 546.856 244.791 545.664 244.136 543.951C243.518 542.22 243.699 540.082 244.678 537.537Z" fill="url(#paint3_radial_107_57)" fill-opacity="0.5"/>
<defs>
<radialGradient id="paint0_radial_107_57" cx="0" cy="0" r="1" gradientUnits="userSpaceOnUse" gradientTransform="translate(134.512 337.024) scale(70.2687 70.3683)">
<stop stop-color="#FFFF00"/>
<stop offset="1" stop-color="#FFFF00" stop-opacity="0"/>
</radialGradient>
<radialGradient id="paint1_radial_107_57" cx="0" cy="0" r="1" gradientUnits="userSpaceOnUse" gradientTransform="translate(248.5 534.5) rotate(-125.218) scale(114.448 206.222)">
<stop stop-color="#FAFF00" stop-opacity="0"/>
<stop offset="1" stop-color="#FAFF00"/>
</radialGradient>
<radialGradient id="paint2_radial_107_57" cx="0" cy="0" r="1" gradientUnits="userSpaceOnUse" gradientTransform="translate(248.5 534.5) rotate(-125.218) scale(114.448 206.222)">
<stop stop-color="#FAFF00" stop-opacity="0"/>
<stop offset="1" stop-color="#FAFF00"/>
</radialGradient>
<radialGradient id="paint3_radial_107_57" cx="0" cy="0" r="1" gradientUnits="userSpaceOnUse" gradientTransform="translate(248.5 534.5) rotate(-125.218) scale(114.448 206.222)">
<stop stop-color="#FAFF00" stop-opacity="0"/>
<stop offset="1" stop-color="#FAFF00"/>
</radialGradient>
</defs>
</svg>
