<svg width="600" height="600" viewBox="0 0 600 600" fill="none" xmlns="http://www.w3.org/2000/svg">
<path d="M197.56 62.2407C145.17 102.396 180.397 173.344 125.297 211.693C88.5913 237.231 49.1754 222.286 26.2649 256.282C13.2905 275.579 14.1117 297.422 15.2613 310.068C26.7576 433.407 136.137 591.071 288.381 553.297C440.625 515.523 371.318 415.341 477.002 378.8C520.442 363.772 567.166 351.537 583.179 275.99C593.033 229.512 578.252 160.37 536.29 143.7C497.367 128.262 472.486 169.649 428.061 154.786C383.472 139.841 391.601 90.8172 342.085 60.5984C301.273 35.7171 236.072 32.6788 197.56 62.2407Z" fill="#83EAE0"/>
<path d="M478.397 435.624C461.809 455.004 455.651 477.339 463.616 493.024C465.258 496.308 467.968 500.907 472.731 502.549C494.656 510.104 532.758 448.763 517.977 433.9C512.968 428.891 505.003 424.703 497.202 425.36C486.444 426.181 479.875 433.818 478.397 435.624Z" fill="#83EAE0"/>
<path opacity="0.79" d="M121.029 391.692C167.696 391.692 205.527 355.148 205.527 310.068C205.527 264.989 167.696 228.444 121.029 228.444C74.3622 228.444 36.5312 264.989 36.5312 310.068C36.5312 355.148 74.3622 391.692 121.029 391.692Z" fill="url(#paint0_radial_202_2)"/>
<path d="M417.716 255.789C417.716 255.789 430.198 252.751 454.011 228.937C477.825 205.123 517.898 184.184 532.597 231.975C541.301 260.224 535.142 324.192 506.648 330.926C487.515 335.524 467.314 320.169 454.586 307.44C441.858 294.712 417.634 288.389 417.634 288.389V255.789H417.716Z" fill="#00B763"/>
<path d="M417.716 255.789V288.472C417.716 288.472 441.94 294.795 454.668 307.523C458.528 311.382 463.126 315.57 468.135 319.265C471.666 314.995 478.564 305.716 480.945 298.9C491.785 266.875 485.708 230.333 458.117 224.996C456.721 226.309 455.325 227.623 454.011 228.937C430.198 252.751 417.716 255.789 417.716 255.789Z" fill="#07AD5A"/>
<path opacity="0.8" d="M429.705 260.88C429.705 260.88 470.353 249.466 497.451 222.368" stroke="#442753" stroke-width="4" stroke-miterlimit="10" stroke-linecap="round" stroke-linejoin="round"/>
<path opacity="0.8" d="M430.855 269.585C430.855 269.585 490.144 261.784 512.561 252.012" stroke="#442753" stroke-width="4" stroke-miterlimit="10" stroke-linecap="round" stroke-linejoin="round"/>
<path opacity="0.8" d="M431.101 286.008C431.101 286.008 464.276 294.138 497.451 313.763" stroke="#442753" stroke-width="4" stroke-miterlimit="10" stroke-linecap="round" stroke-linejoin="round"/>
<path opacity="0.8" d="M431.101 279.439C431.101 279.439 488.746 284.53 512.56 284.53" stroke="#442753" stroke-width="4" stroke-miterlimit="10" stroke-linecap="round" stroke-linejoin="round"/>
<path d="M297.825 171.62C297.825 171.62 301.685 156.018 308.09 149.859C314.495 143.7 325.088 141.894 347.341 145.999C369.513 150.105 385.69 157.66 385.69 166.282C385.69 170.388 369.595 184.266 365.653 184.266C361.712 184.266 308.993 170.142 297.825 171.62Z" fill="#00B763"/>
<path d="M334.86 157.496C315.809 157.496 307.351 165.954 304.148 171.784C322.05 173.591 362.287 184.266 365.654 184.266C368.61 184.266 378.628 176.218 383.227 170.634C375.672 161.52 353.747 157.496 334.86 157.496Z" fill="#07AD5A"/>
<path opacity="0.8" d="M316.876 167.35C316.876 167.35 321.064 157.496 329.358 153.39" stroke="#442753" stroke-width="4" stroke-miterlimit="10" stroke-linecap="round" stroke-linejoin="round"/>
<path opacity="0.8" d="M348.574 157.496C339.131 160.37 331.74 170.634 331.74 170.634" stroke="#442753" stroke-width="4" stroke-miterlimit="10" stroke-linecap="round" stroke-linejoin="round"/>
<path opacity="0.8" d="M348.574 172.852C348.574 172.852 355.965 163.983 368.282 163.983" stroke="#442753" stroke-width="4" stroke-miterlimit="10" stroke-linecap="round" stroke-linejoin="round"/>
<path d="M297.825 171.62C297.825 171.62 301.685 156.018 308.09 149.859C314.495 143.7 325.088 141.894 347.341 145.999C369.513 150.105 385.69 157.66 385.69 166.282C385.69 170.388 369.595 184.266 365.653 184.266C361.712 184.266 308.993 170.142 297.825 171.62Z" stroke="#0F7C46" stroke-width="6" stroke-miterlimit="10" stroke-linecap="round" stroke-linejoin="round"/>
<path d="M417.716 255.789C417.716 255.789 430.198 252.751 454.011 228.937C477.825 205.123 517.898 184.184 532.597 231.975C541.301 260.224 535.142 324.192 506.648 330.926C487.515 335.524 467.314 320.169 454.586 307.44C441.858 294.712 417.634 288.389 417.634 288.389V255.789H417.716Z" stroke="#0F7C46" stroke-width="6" stroke-miterlimit="10" stroke-linecap="round" stroke-linejoin="round"/>
<path d="M276.393 383.48C276.393 383.48 296.511 409.347 306.776 419.612C317.04 429.876 397.104 410.579 406.137 401.546C415.169 392.513 417.633 371.984 370.005 360.488C370.087 360.488 326.976 396.455 276.393 383.48Z" fill="#00B763"/>
<path d="M297.662 409.593C328.456 408.362 385.116 403.599 410.654 385.123C407.944 376.5 397.023 367.057 370.007 360.57C370.007 360.57 329.605 394.237 281.157 384.63C280.335 385.369 279.596 386.026 278.939 386.765C282.799 391.61 290.6 401.382 297.662 409.593Z" fill="#07AD5A"/>
<path opacity="0.8" d="M309.568 396.619C309.568 396.619 320.243 404.748 324.267 412.96" stroke="#442753" stroke-width="4" stroke-miterlimit="10" stroke-linecap="round" stroke-linejoin="round"/>
<path opacity="0.8" d="M329.358 395.634C329.358 395.634 338.391 402.613 342.169 409.922" stroke="#442753" stroke-width="4" stroke-miterlimit="10" stroke-linecap="round" stroke-linejoin="round"/>
<path opacity="0.8" d="M343.894 390.46C343.894 390.46 353.994 395.059 359.906 404.748" stroke="#442753" stroke-width="4" stroke-miterlimit="10" stroke-linecap="round" stroke-linejoin="round"/>
<path opacity="0.8" d="M356.375 386.19C356.375 386.19 374.523 391.363 378.218 398.672" stroke="#442753" stroke-width="4" stroke-miterlimit="10" stroke-linecap="round" stroke-linejoin="round"/>
<path opacity="0.8" d="M371.32 378.8C371.32 378.8 390.618 383.234 394.395 390.542" stroke="#442753" stroke-width="4" stroke-miterlimit="10" stroke-linecap="round" stroke-linejoin="round"/>
<path d="M276.393 383.48C276.393 383.48 296.511 409.347 306.776 419.612C317.04 429.876 397.104 410.579 406.137 401.546C415.169 392.513 417.633 371.984 370.005 360.488C370.087 360.488 326.976 396.455 276.393 383.48Z" stroke="#0F7C46" stroke-width="6" stroke-miterlimit="10" stroke-linecap="round" stroke-linejoin="round"/>
<path d="M98.283 298.9C98.283 298.9 103.21 321.154 120.947 319.429C134.168 318.198 137.37 290.36 117.58 279.767C97.7082 269.256 98.283 298.9 98.283 298.9Z" fill="#F4E834"/>
<path d="M98.283 298.9C98.283 298.9 103.21 321.154 120.947 319.429C134.168 318.198 137.37 290.36 117.58 279.767C97.7082 269.256 98.283 298.9 98.283 298.9Z" fill="#F4E834" stroke="#D3A548" stroke-width="6" stroke-miterlimit="10"/>
<path d="M113.721 305.634C118.346 305.634 122.096 301.884 122.096 297.258C122.096 292.632 118.346 288.882 113.721 288.882C109.095 288.882 105.345 292.632 105.345 297.258C105.345 301.884 109.095 305.634 113.721 305.634Z" fill="#F4E834"/>
<path opacity="0.66" d="M113.72 304.649C117.801 304.649 121.11 301.34 121.11 297.258C121.11 293.176 117.801 289.868 113.72 289.868C109.638 289.868 106.329 293.176 106.329 297.258C106.329 301.34 109.638 304.649 113.72 304.649Z" fill="#F99338"/>
<path d="M430.198 263.672C420.919 201.1 358.264 158.481 290.354 168.582C277.625 170.47 265.636 174.083 254.633 179.01C241.741 184.841 226.467 181.556 217.188 170.881C213.082 166.118 209.223 161.93 207.17 160.124C201.339 155.032 194.606 149.859 186.887 145.343C183.027 143.043 178.922 140.908 174.569 139.02C170.217 137.131 165.619 135.407 160.856 134.093C159.624 133.764 158.475 133.436 157.243 133.107C156.011 132.861 154.779 132.533 153.548 132.286C152.316 132.04 151.002 131.876 149.77 131.629C148.538 131.383 147.225 131.301 145.911 131.137C140.737 130.562 135.482 130.48 130.144 131.054C124.807 131.547 119.469 132.697 114.296 134.585L113.31 134.914L112.818 135.078L112.571 135.16C111.915 135.407 112.325 135.242 112.161 135.324L112.079 135.407L110.436 136.146L108.794 136.885L107.973 137.295C107.727 137.46 107.316 137.624 107.07 137.788C105.756 138.445 104.524 139.184 103.292 139.841C102.061 140.58 100.993 141.319 99.8434 142.058C95.4091 145.178 91.3033 148.709 87.7723 152.569C84.2413 156.511 81.0387 160.698 78.3289 164.969C75.6191 169.321 73.2377 173.837 71.2669 178.518L70.9384 179.421L70.6099 180.324L69.953 181.967C69.7888 182.459 69.5424 183.116 69.2961 183.773L68.7213 185.58C68.3107 186.811 68.0643 187.961 67.6538 189.193C67.3253 190.425 67.0789 191.574 66.7505 192.806C64.6154 202.414 64.287 211.857 65.1081 220.726C66.0114 229.512 67.9822 237.724 70.5278 244.868C73.0734 252.094 76.1939 258.335 79.3143 263.672C82.4347 269.01 85.5551 273.362 88.265 276.811C89.5788 278.536 90.8927 280.014 91.9602 281.327C92.535 281.984 93.0277 282.559 93.5204 283.052C91.3854 288.882 88.5934 300.379 95.9018 307.605C102.635 314.338 104.77 288.964 119.305 286.665C123.904 285.926 125.053 279.849 120.373 275.169C116.431 271.227 107.07 270.57 98.7759 276.401C98.6938 276.236 98.5295 276.154 98.4474 275.99C97.462 274.758 96.3124 273.28 95.1628 271.638C92.7814 268.353 89.9894 264.165 87.2796 259.156C84.5697 254.147 81.942 248.317 79.8891 241.665C77.7541 235.014 76.276 227.623 75.7833 219.822C75.2906 211.939 75.9475 203.645 78.0825 195.434C78.411 194.448 78.6574 193.381 78.9858 192.395C79.3143 191.41 79.6428 190.342 79.9712 189.357L80.546 187.879C80.7103 187.386 80.8745 186.894 81.1208 186.401L81.7778 184.759L82.1062 184.102L82.4347 183.363C84.2413 179.421 86.4584 175.562 88.9219 171.866C91.3854 168.171 94.2595 164.722 97.2978 161.602C100.418 158.481 103.785 155.689 107.398 153.39C108.301 152.815 109.205 152.24 110.108 151.748C111.011 151.337 111.832 150.844 112.736 150.434C112.982 150.352 113.146 150.188 113.393 150.105L114.214 149.777L115.938 149.12L117.581 148.463L117.745 148.381L118.155 148.299L118.894 148.053C122.918 146.739 127.106 146 131.294 145.753C135.482 145.507 139.752 145.671 143.94 146.328C145.007 146.492 145.993 146.657 147.06 146.821C148.128 147.067 149.113 147.231 150.181 147.478C151.166 147.724 152.234 147.97 153.219 148.299C154.204 148.545 155.19 148.874 156.175 149.202C160.117 150.516 163.976 152.076 167.589 153.801C171.203 155.607 174.651 157.496 177.936 159.631C184.505 163.819 190.171 168.5 195.181 173.18C196.741 174.576 199.451 177.861 202.571 181.72C211.604 192.97 212.097 208.737 203.721 220.479C187.462 243.308 179.661 271.391 183.931 300.214C193.21 362.787 255.865 405.405 323.775 395.305C391.685 385.205 439.477 326.327 430.198 263.672Z" fill="#00F0B5"/>
<path d="M210.453 353.426C210.453 353.426 211.192 356.71 223.674 352.03C236.156 347.349 246.584 331.829 246.584 331.829L217.351 342.833L201.995 345.542L210.453 353.426Z" fill="#12CC9B"/>
<path d="M207.744 163.983C207.744 163.983 217.926 185.087 235.089 189.193C252.087 193.299 261.612 179.585 276.475 172.77C263.583 175.315 248.063 182.623 248.063 182.623C248.063 182.623 228.191 185.251 215.134 170.552C202.078 155.936 207.744 163.983 207.744 163.983Z" fill="#12CC9B"/>
<g opacity="0.76">
<path opacity="0.76" d="M430.197 263.672C422.56 212.514 379.285 174.74 326.566 168.171C361.876 183.773 408.436 194.038 408.847 260.88C409.422 343.161 350.955 386.272 288.3 390.46C275.818 391.281 263.09 387.176 251.348 385.78C273.026 395.387 297.99 399.082 323.856 395.305C391.849 385.205 439.476 326.327 430.197 263.672Z" fill="#12CC9B"/>
</g>
<path d="M273.192 298.9C286.797 298.9 297.827 287.319 297.827 273.034C297.827 258.748 286.797 247.167 273.192 247.167C259.586 247.167 248.557 258.748 248.557 273.034C248.557 287.319 259.586 298.9 273.192 298.9Z" fill="#442753"/>
<path d="M266.622 277.14C272.245 277.14 276.804 272.36 276.804 266.464C276.804 260.569 272.245 255.789 266.622 255.789C260.998 255.789 256.439 260.569 256.439 266.464C256.439 272.36 260.998 277.14 266.622 277.14Z" fill="white"/>
<path d="M282.387 288.472C285.698 288.472 288.382 285.677 288.382 282.231C288.382 278.784 285.698 275.99 282.387 275.99C279.076 275.99 276.393 278.784 276.393 282.231C276.393 285.677 279.076 288.472 282.387 288.472Z" fill="white"/>
<path d="M352.269 278.535C351.858 277.55 349.559 272.459 344.139 269.585C334.778 264.576 323.774 270.077 318.19 272.787C314.249 274.758 309.486 277.057 309.24 280.588C308.993 284.366 313.756 286.09 314.167 289.703C313.756 293.399 308.993 295.123 309.24 298.9C309.486 302.431 314.249 304.813 318.19 306.701C323.692 309.411 334.778 314.913 344.139 309.904C349.559 307.03 351.858 301.939 352.269 300.953C352.926 299.393 353.993 294.548 353.993 289.703C353.993 284.858 352.926 280.096 352.269 278.535Z" fill="#00B763"/>
<path opacity="0.8" d="M319.504 283.627C319.504 283.627 333.874 280.096 342.989 280.096" stroke="#442753" stroke-width="4" stroke-miterlimit="10" stroke-linecap="round" stroke-linejoin="round"/>
<path opacity="0.8" d="M319.504 291.099C319.504 291.099 333.546 289.129 339.705 292.003" stroke="#442753" stroke-width="4" stroke-miterlimit="10" stroke-linecap="round" stroke-linejoin="round"/>
<path d="M352.269 278.535C351.858 277.55 349.559 272.459 344.139 269.585C334.778 264.576 323.774 270.077 318.19 272.787C314.249 274.758 309.486 277.057 309.24 280.588C308.993 284.366 313.756 286.09 314.167 289.703C313.756 293.399 308.993 295.123 309.24 298.9C309.486 302.431 314.249 304.813 318.19 306.701C323.692 309.411 334.778 314.913 344.139 309.904C349.559 307.03 351.858 301.939 352.269 300.953C352.926 299.393 353.993 294.548 353.993 289.703C353.993 284.858 352.926 280.096 352.269 278.535Z" stroke="#0F7C46" stroke-width="6" stroke-miterlimit="10" stroke-linecap="round" stroke-linejoin="round"/>
<path d="M430.198 263.672C420.919 201.1 358.264 158.481 290.354 168.582C277.625 170.47 265.636 174.083 254.633 179.01C241.741 184.841 226.467 181.556 217.188 170.881C213.082 166.118 209.223 161.93 207.17 160.124C201.339 155.032 194.606 149.859 186.887 145.343C183.027 143.043 178.922 140.908 174.569 139.02C170.217 137.131 165.619 135.407 160.856 134.093C159.624 133.764 158.475 133.436 157.243 133.107C156.011 132.861 154.779 132.533 153.548 132.286C152.316 132.04 151.002 131.876 149.77 131.629C148.538 131.383 147.225 131.301 145.911 131.137C140.737 130.562 135.482 130.48 130.144 131.054C124.807 131.547 119.469 132.697 114.296 134.585L113.31 134.914L112.818 135.078L112.571 135.16C111.915 135.407 112.325 135.242 112.161 135.324L112.079 135.407L110.436 136.146L108.794 136.885L107.973 137.295C107.727 137.46 107.316 137.624 107.07 137.788C105.756 138.445 104.524 139.184 103.292 139.841C102.061 140.58 100.993 141.319 99.8434 142.058C95.4091 145.178 91.3033 148.709 87.7723 152.569C84.2413 156.511 81.0387 160.698 78.3289 164.969C75.6191 169.321 73.2377 173.837 71.2669 178.518L70.9384 179.421L70.6099 180.324L69.953 181.967C69.7888 182.459 69.5424 183.116 69.2961 183.773L68.7213 185.58C68.3107 186.811 68.0643 187.961 67.6538 189.193C67.3253 190.425 67.0789 191.574 66.7505 192.806C64.6154 202.414 64.287 211.857 65.1081 220.726C66.0114 229.512 67.9822 237.724 70.5278 244.868C73.0734 252.094 76.1939 258.335 79.3143 263.672C82.4347 269.01 85.5551 273.362 88.265 276.811C89.5788 278.536 90.8927 280.014 91.9602 281.327C92.535 281.984 93.0277 282.559 93.5204 283.052C91.3854 288.882 88.5934 300.379 95.9018 307.605C102.635 314.338 104.77 288.964 119.305 286.665C123.904 285.926 125.053 279.849 120.373 275.169C116.431 271.227 107.07 270.57 98.7759 276.401C98.6938 276.236 98.5295 276.154 98.4474 275.99C97.462 274.758 96.3124 273.28 95.1628 271.638C92.7814 268.353 89.9894 264.165 87.2796 259.156C84.5697 254.147 81.942 248.317 79.8891 241.665C77.7541 235.014 76.276 227.623 75.7833 219.822C75.2906 211.939 75.9475 203.645 78.0825 195.434C78.411 194.448 78.6574 193.381 78.9858 192.395C79.3143 191.41 79.6428 190.342 79.9712 189.357L80.546 187.879C80.7103 187.386 80.8745 186.894 81.1208 186.401L81.7778 184.759L82.1062 184.102L82.4347 183.363C84.2413 179.421 86.4584 175.562 88.9219 171.866C91.3854 168.171 94.2595 164.722 97.2978 161.602C100.418 158.481 103.785 155.689 107.398 153.39C108.301 152.815 109.205 152.24 110.108 151.748C111.011 151.337 111.832 150.844 112.736 150.434C112.982 150.352 113.146 150.188 113.393 150.105L114.214 149.777L115.938 149.12L117.581 148.463L117.745 148.381L118.155 148.299L118.894 148.053C122.918 146.739 127.106 146 131.294 145.753C135.482 145.507 139.752 145.671 143.94 146.328C145.007 146.492 145.993 146.657 147.06 146.821C148.128 147.067 149.113 147.231 150.181 147.478C151.166 147.724 152.234 147.97 153.219 148.299C154.204 148.545 155.19 148.874 156.175 149.202C160.117 150.516 163.976 152.076 167.589 153.801C171.203 155.607 174.651 157.496 177.936 159.631C184.505 163.819 190.171 168.5 195.181 173.18C196.741 174.576 199.451 177.861 202.571 181.72C211.604 192.97 212.097 208.737 203.721 220.479C187.462 243.308 179.661 271.391 183.931 300.214C193.21 362.787 255.865 405.405 323.775 395.305C391.685 385.205 439.477 326.327 430.198 263.672Z" stroke="#0A8E6B" stroke-width="6" stroke-miterlimit="10" stroke-linecap="round" stroke-linejoin="round"/>
<path d="M227.041 339.63C221.95 341.601 216.776 343.161 211.685 344.229C201.667 334.457 195.754 319.676 196.822 303.499C197.561 293.07 201.01 283.627 206.43 275.99C205.773 279.11 205.28 282.395 205.116 285.68C203.556 307.03 212.342 326.738 227.041 339.63Z" fill="white"/>
<path d="M227.041 339.63C221.95 341.601 216.776 343.161 211.685 344.229C201.667 334.457 195.754 319.676 196.822 303.499C197.561 293.07 201.01 283.627 206.43 275.99C205.773 279.11 205.28 282.395 205.116 285.68C203.556 307.03 212.342 326.738 227.041 339.63Z" stroke="white" stroke-width="3" stroke-miterlimit="10" stroke-linecap="round" stroke-linejoin="round"/>
<path d="M242.069 332.404C239.359 333.964 236.567 335.442 233.693 336.756C233.036 337.084 232.297 337.413 231.64 337.659C226.713 330.762 223.675 321.975 223.675 312.367C223.675 303.909 225.974 296.108 229.916 289.703C229.587 292.249 229.341 294.877 229.341 297.586C229.341 310.971 234.186 323.207 242.069 332.404Z" fill="white"/>
<path d="M242.069 332.404C239.359 333.964 236.567 335.442 233.693 336.756C233.036 337.084 232.297 337.413 231.64 337.659C226.713 330.762 223.675 321.975 223.675 312.367C223.675 303.909 225.974 296.108 229.916 289.703C229.587 292.249 229.341 294.877 229.341 297.586C229.341 310.971 234.186 323.207 242.069 332.404Z" stroke="white" stroke-width="3" stroke-miterlimit="10" stroke-linecap="round" stroke-linejoin="round"/>
<path opacity="0.3" d="M294.459 315.981C294.459 315.981 294.459 333.307 278.446 343.161" stroke="#212121" stroke-width="6" stroke-miterlimit="10" stroke-linecap="round" stroke-linejoin="round"/>
<path opacity="0.3" d="M308.172 322.796C308.172 322.796 314.413 335.278 307.762 348.991" stroke="#212121" stroke-width="6" stroke-miterlimit="10" stroke-linecap="round" stroke-linejoin="round"/>
<path d="M251.594 326.245C246.175 330.269 240.18 333.882 233.693 336.838C223.921 341.355 213.903 344.229 204.049 345.542" stroke="#0A8E6B" stroke-width="6" stroke-miterlimit="10" stroke-linecap="round" stroke-linejoin="round"/>
<path opacity="0.8" d="M319.504 297.586C319.504 297.586 330.508 298.654 332.807 300.953" stroke="#442753" stroke-width="4" stroke-miterlimit="10" stroke-linecap="round" stroke-linejoin="round"/>
<path d="M442.269 72.0947C442.269 72.0947 436.028 95.0873 459.678 95.0873C483.327 95.0873 468.546 62.2408 442.269 72.0947Z" fill="#83EAE0"/>
<path d="M177.208 427.299L154.439 418.539L148.615 433.676L167.647 440.998C169.412 441.677 170.561 442.599 171.097 443.762C171.668 444.909 171.69 446.168 171.162 447.541C170.634 448.913 169.774 449.833 168.581 450.301C167.388 450.769 165.922 450.669 164.184 450L145.152 442.677L137.65 462.173C136.698 464.649 135.444 466.282 133.888 467.074C132.369 467.849 130.766 467.912 129.079 467.263C127.367 466.604 126.198 465.459 125.575 463.829C124.977 462.209 125.149 460.174 126.091 457.725L143.609 412.194C144.272 410.472 145.057 409.168 145.964 408.281C146.882 407.367 147.952 406.868 149.177 406.783C150.437 406.681 151.885 406.944 153.52 407.573L180.764 418.056C182.606 418.765 183.803 419.719 184.354 420.92C184.941 422.103 184.97 423.381 184.442 424.754C183.904 426.153 183.015 427.109 181.776 427.62C180.573 428.115 179.05 428.008 177.208 427.299Z" fill="#0A3922"/>
<path d="M177.208 427.299L154.439 418.539L148.615 433.676L167.647 440.998C169.412 441.677 170.561 442.599 171.097 443.762C171.668 444.909 171.69 446.168 171.162 447.541C170.634 448.913 169.774 449.833 168.581 450.301C167.388 450.769 165.922 450.669 164.184 450L145.152 442.677L137.65 462.173C136.698 464.649 135.444 466.282 133.888 467.074C132.369 467.849 130.766 467.912 129.079 467.263C127.367 466.604 126.198 465.459 125.575 463.829C124.977 462.209 125.149 460.174 126.091 457.725L143.609 412.194C144.272 410.472 145.057 409.168 145.964 408.281C146.882 407.367 147.952 406.868 149.177 406.783C150.437 406.681 151.885 406.944 153.52 407.573L180.764 418.056C182.606 418.765 183.803 419.719 184.354 420.92C184.941 422.103 184.97 423.381 184.442 424.754C183.904 426.153 183.015 427.109 181.776 427.62C180.573 428.115 179.05 428.008 177.208 427.299Z" fill="url(#paint1_radial_202_2)" fill-opacity="0.5"/>
<path d="M187.235 481.251L194.457 462.482L189.143 434.718C188.7 432.231 188.436 430.322 188.352 428.992C188.294 427.672 188.426 426.595 188.747 425.761C189.275 424.389 190.236 423.399 191.631 422.793C193.052 422.197 194.515 422.188 196.02 422.767C197.603 423.376 198.615 424.306 199.057 425.558C199.535 426.792 200.059 429.11 200.627 432.51L204.38 454.576L222.072 440.761C223.145 439.908 224.048 439.189 224.779 438.605C225.51 438.021 226.259 437.506 227.026 437.06C227.83 436.597 228.623 436.316 229.407 436.215C230.19 436.115 231.049 436.245 231.983 436.604C233.436 437.163 234.451 438.125 235.028 439.49C235.641 440.838 235.699 442.158 235.202 443.45C234.798 444.499 234.148 445.454 233.251 446.314C232.355 447.174 230.952 448.302 229.044 449.7L206.017 466.929L198.795 485.699C197.853 488.148 196.604 489.768 195.048 490.559C193.492 491.351 191.871 491.422 190.185 490.774C188.472 490.115 187.312 488.989 186.703 487.395C186.106 485.775 186.283 483.727 187.235 481.251Z" fill="#0A3922"/>
<path d="M187.235 481.251L194.457 462.482L189.143 434.718C188.7 432.231 188.436 430.322 188.352 428.992C188.294 427.672 188.426 426.595 188.747 425.761C189.275 424.389 190.236 423.399 191.631 422.793C193.052 422.197 194.515 422.188 196.02 422.767C197.603 423.376 198.615 424.306 199.057 425.558C199.535 426.792 200.059 429.11 200.627 432.51L204.38 454.576L222.072 440.761C223.145 439.908 224.048 439.189 224.779 438.605C225.51 438.021 226.259 437.506 227.026 437.06C227.83 436.597 228.623 436.316 229.407 436.215C230.19 436.115 231.049 436.245 231.983 436.604C233.436 437.163 234.451 438.125 235.028 439.49C235.641 440.838 235.699 442.158 235.202 443.45C234.798 444.499 234.148 445.454 233.251 446.314C232.355 447.174 230.952 448.302 229.044 449.7L206.017 466.929L198.795 485.699C197.853 488.148 196.604 489.768 195.048 490.559C193.492 491.351 191.871 491.422 190.185 490.774C188.472 490.115 187.312 488.989 186.703 487.395C186.106 485.775 186.283 483.727 187.235 481.251Z" fill="url(#paint2_radial_202_2)" fill-opacity="0.5"/>
<path d="M224.794 495.702L242.732 449.081C243.664 446.659 244.894 445.047 246.424 444.246C247.954 443.444 249.562 443.368 251.249 444.017C252.987 444.686 254.155 445.83 254.753 447.45C255.387 449.054 255.233 451.08 254.291 453.529L236.353 500.15C235.411 502.598 234.162 504.219 232.607 505.01C231.077 505.812 229.443 505.878 227.704 505.209C226.044 504.571 224.901 503.436 224.277 501.806C223.69 500.159 223.862 498.124 224.794 495.702Z" fill="#0A3922"/>
<path d="M224.794 495.702L242.732 449.081C243.664 446.659 244.894 445.047 246.424 444.246C247.954 443.444 249.562 443.368 251.249 444.017C252.987 444.686 254.155 445.83 254.753 447.45C255.387 449.054 255.233 451.08 254.291 453.529L236.353 500.15C235.411 502.598 234.162 504.219 232.607 505.01C231.077 505.812 229.443 505.878 227.704 505.209C226.044 504.571 224.901 503.436 224.277 501.806C223.69 500.159 223.862 498.124 224.794 495.702Z" fill="url(#paint3_radial_202_2)" fill-opacity="0.5"/>
<defs>
<radialGradient id="paint0_radial_202_2" cx="0" cy="0" r="1" gradientUnits="userSpaceOnUse" gradientTransform="translate(121.043 310.095) scale(58.6203 58.6203)">
<stop stop-color="#FFFF00"/>
<stop offset="1" stop-color="#FFFF00" stop-opacity="0"/>
</radialGradient>
<radialGradient id="paint1_radial_202_2" cx="0" cy="0" r="1" gradientUnits="userSpaceOnUse" gradientTransform="translate(228.431 492.812) rotate(-125.218) scale(108.907 196.239)">
<stop stop-color="#FAFF00" stop-opacity="0"/>
<stop offset="1" stop-color="#FAFF00"/>
</radialGradient>
<radialGradient id="paint2_radial_202_2" cx="0" cy="0" r="1" gradientUnits="userSpaceOnUse" gradientTransform="translate(228.431 492.812) rotate(-125.218) scale(108.907 196.239)">
<stop stop-color="#FAFF00" stop-opacity="0"/>
<stop offset="1" stop-color="#FAFF00"/>
</radialGradient>
<radialGradient id="paint3_radial_202_2" cx="0" cy="0" r="1" gradientUnits="userSpaceOnUse" gradientTransform="translate(228.431 492.812) rotate(-125.218) scale(108.907 196.239)">
<stop stop-color="#FAFF00" stop-opacity="0"/>
<stop offset="1" stop-color="#FAFF00"/>
</radialGradient>
</defs>
</svg>
